<svg id="backdrop" xmlns="http://www.w3.org/2000/svg" xmlns:xlink="http://www.w3.org/1999/xlink" viewBox="0 0 360 384" shape-rendering="geometricPrecision" text-rendering="geometricPrecision">
<style>#backdrop-s-g1_tr {animation: backdrop-s-g1_tr__tr 10000ms linear infinite normal forwards}@keyframes backdrop-s-g1_tr__tr { 0% {transform: translate(176.463784px,194.473953px) rotate(0deg)} 100% {transform: translate(176.463784px,194.473953px) rotate(360deg)}} #backdrop-s-g1_ts {animation: backdrop-s-g1_ts__ts 10000ms linear infinite normal forwards}@keyframes backdrop-s-g1_ts__ts { 0% {transform: scale(1,1)} 50% {transform: scale(1.1,1.2);animation-timing-function: cubic-bezier(0.785,0.135,0.15,0.86)} 100% {transform: scale(1,1)}} #backdrop-s-path2_tr {animation: backdrop-s-path2_tr__tr 10000ms linear infinite normal forwards}@keyframes backdrop-s-path2_tr__tr { 0% {transform: translate(166.298195px,204.048325px) rotate(-360deg)} 100% {transform: translate(166.298195px,204.048325px) rotate(0deg)}} #backdrop-s-path4_tr {animation: backdrop-s-path4_tr__tr 10000ms linear infinite normal forwards}@keyframes backdrop-s-path4_tr__tr { 0% {transform: translate(172.563675px,184.606796px) rotate(0deg)} 100% {transform: translate(172.563675px,184.606796px) rotate(-360deg)}}</style>
<g id="backdrop-s-g1_tr" transform="translate(176.463784,194.473953) rotate(0)"><g id="backdrop-s-g1_ts" transform="scale(1,1)"><g id="backdrop-s-g1" transform="translate(-176.463783,-194.473953)"><path id="backdrop-s-path1" d="M160.433,91.461c38.64-7.7009,73.272,2.8821,103.217,17.06c32.732,15.498,67.214,33.642,70.592,65.234c3.482,32.567-18.737,69.466-53.486,94.759-31.062,22.609-72.963,20.665-111.947,25.655-35.2,4.506-72.1389,13.623-100.0538,1.482-30.2541-13.159-50.0474-37.95-50.4233-66.932-.3697-28.501,22.9035-56.244,48.5048-80.973c25.7192-24.842,55.9683-48.7857,93.5963-56.285Z" fill="#8188db" fill-opacity="0.08"/><g id="backdrop-s-path2_tr" transform="translate(166.298195,204.048325) rotate(-360)"><path id="backdrop-s-path2" d="M259.613,133.728c25.627,29.927,33.347,65.307,35.639,98.36c2.505,36.129,3.559,75.079-22.338,93.487-26.696,18.975-69.748,17.657-108.811-.267-34.919-16.022-53.731-53.513-77.162-85.066C65.7838,211.75,39.755,184,36.681,153.715c-3.3315-32.824,8.6-62.2174,33.6896-76.7294c24.6731-14.2711,60.2574-7.5538,94.3514,2.669c34.251,10.27,69.936,24.9304,94.891,54.0734Z" transform="translate(-166.298195,-204.048325)" fill="#8188db" fill-opacity="0.08"/></g><path id="backdrop-s-path3" d="M223.319,94.1753c37.039,13.4327,61.177,40.4277,79.444,68.0687c19.967,30.215,40.06,63.599,26.581,92.371-13.895,29.659-52.017,49.706-94.843,53.336-38.282,3.245-73.113-20.126-109.042-36.056-32.4421-14.384-68.7598-25.724-86.3453-50.572-19.059-26.93-23.1443-58.389-8.4502-83.372c14.4502-24.569,48.7302-36.24,83.4395-44.1268c34.869-7.923,73.147-12.7299,109.216.3511Z" fill="#8188db" fill-opacity="0.08"/><g id="backdrop-s-path4_tr" transform="translate(172.563675,184.606796) rotate(0)"><path id="backdrop-s-path4" d="M250.26,271.999c-27.775,27.944-62.422,38.476-95.185,43.411-35.812,5.394-74.5515,9.568-94.9767-14.77-21.055-25.088-23.1939-68.106-8.46-108.481C64.809,156.067,100.67,134.31,130.243,108.424c26.704-23.3739,52.277-51.5441,82.219-57.0367c32.45-5.9529,62.706,3.5832,79.183,27.4282c16.204,23.4495,12.362,59.4575,4.906,94.2615-7.491,34.965-19.243,71.71-46.291,98.922Z" transform="translate(-172.563675,-184.606796)" fill="#8188db" fill-opacity="0.08"/></g></g></g></g></svg>
