<svg xmlns="http://www.w3.org/2000/svg" xmlns:xlink="http://www.w3.org/1999/xlink" version="1.1" id="Layer_1" x="0px" y="0px" viewBox="0 0 451.277 451.277" style="enable-background:new 0 0 451.277 451.277;" xml:space="preserve">
<circle style="fill:#8c4cd1;" cx="225.638" cy="225.638" r="225.638"/>
<path style="opacity:0.1;enable-background:new    ;" d="M314.44,96.341H136.829c-6.676,0-12.129,6.394-12.129,14.292  c0,4.936,2.163,9.308,5.453,11.894h0.047l10.014,10.014c1.692,26.891,12.317,50.773,28.442,67.603h-0.047l30.417,30.417  c-34.319,13.163-59.094,51.055-59.094,95.857h-3.103c-6.676,0-12.129,6.347-12.129,14.245c0,4.334,1.696,8.135,4.307,10.743  l-0.029,0.023l99.789,99.789c122.124-1.667,220.769-100.304,222.45-222.425L323.232,100.807  C321.022,98.033,317.872,96.341,314.44,96.341z"/>
<path style="fill:#FFFFFF;" d="M139.941,124.878c0,54.675,36.945,99.083,83.027,100.759c-46.083,1.676-83.027,46.087-83.027,100.761  h85.698V124.878H139.941z"/>
<path style="fill:#EBF0F3;" d="M228.309,225.637c46.082-1.676,83.027-46.085,83.027-100.759h-85.697v201.521h85.697  C311.336,271.724,274.391,227.314,228.309,225.637z"/>
<path style="fill: #2b59d6;" d="M210.571,163.948c-5.326-0.715-10.547-2.43-15.899-2.759c-9.688-0.599-19.1,3.342-28.594,5.698  c-4.259,1.057-8.58,1.731-12.918,2.152c13.447,30.475,40.269,51.478,71.286,52.007c-0.881,1.589-1.665,3.776-2.534,5.181  c-2.529,4.089-6.022,6.983-8.482,11.161c-3.642,6.183-4.676,14.371-8.078,20.781c-2.192,4.129-5.28,7.351-7.495,11.46  c-2.163,4.012-3.426,8.742-5.568,12.776c-2.174,4.091-5.171,7.313-7.752,10.99c-6.957,9.911-10.82,22.931-17.604,33.004h58.705  V163.994C220.607,164.391,215.571,164.621,210.571,163.948z"/>
<path style="fill: #2b59d6;" d="M283.797,315.429c-1.835-2.437-4.448-3.989-5.662-7.009c-1.085-2.696-0.874-6.198-2.427-8.482  c-1.854-2.723-5.301-2.396-7.525-4.611c-2.679-2.667-2.785-8.125-5.34-10.99c-1.357-1.52-3.314-2.192-4.264-4.163  c-0.702-1.46-0.677-3.288-0.942-4.972c-0.936-5.957-5.358-9.725-9.37-12.888c-1.873-1.476-3.776-3.006-5.166-5.203  c-0.9-1.424-1.552-3.076-2.196-4.715c-2.125-5.403-4.249-10.808-6.374-16.211c-1.729-4.396-3.338-11.336-5.863-15.224  c32.254-1.4,59.747-24.898,71.924-58.012c-22.815-0.76-45.666-1.409-68.428,0.5c-2.171,0.182-4.348,0.373-6.524,0.544v162.405  h61.127C287.083,322.477,285.914,318.243,283.797,315.429z"/>
<path style="fill: #66418d;" d="M326.558,110.616c0-7.875-5.422-14.261-12.11-14.261h-88.809v28.523h88.809  C321.135,124.878,326.558,118.492,326.558,110.616z"/>
<g>
	<path style="fill: #66418d;" d="M136.829,96.355c-6.688,0-12.11,6.385-12.11,14.261c0,7.876,5.422,14.262,12.11,14.262h88.809   V96.355H136.829z"/>
	<path style="fill: #66418d;" d="M136.829,326.399c-6.688,0-12.11,6.385-12.11,14.262c0,7.875,5.422,14.261,12.11,14.261h88.809   v-28.523H136.829z"/>
</g>
<path style="fill: #66418d;" d="M314.447,326.399h-88.809v28.523h88.809c6.688,0,12.11-6.385,12.11-14.261  C326.558,332.783,321.135,326.399,314.447,326.399z"/>
</svg>